<?xml version="1.0" standalone="no"?>
<!DOCTYPE svg PUBLIC "-//W3C//DTD SVG 20010904//EN"
 "http://www.w3.org/TR/2001/REC-SVG-20010904/DTD/svg10.dtd">
<svg version="1.0" xmlns="http://www.w3.org/2000/svg"
 width="260.000000pt" height="260.000000pt" viewBox="0 0 260.000000 260.000000"
 preserveAspectRatio="xMidYMid meet">
<metadata>
Created by potrace 1.11, written by Peter Selinger 2001-2013
</metadata>
<g transform="translate(0.000000,260.000000) scale(0.100000,-0.100000)"
fill="#000000" stroke="none">
<path d="M1422 2573 c-32 -45 -88 -164 -108 -227 -13 -41 -25 -61 -41 -67 -12
-4 -29 -19 -37 -32 l-16 -23 -140 20 c-123 18 -142 19 -150 6 -12 -19 -2 -57
26 -100 44 -67 50 -224 21 -511 -2 -20 -6 -40 -9 -45 -3 -5 -13 -34 -23 -64
-23 -73 -41 -107 -81 -156 -24 -29 -30 -44 -23 -51 8 -8 8 -13 0 -17 -6 -4
-11 -2 -11 5 0 24 -28 -11 -34 -43 -3 -18 -11 -49 -16 -69 l-10 -38 -48 15
c-99 30 -89 36 -93 -54 -2 -44 -7 -83 -10 -87 -8 -7 -126 13 -151 26 -38 20
-124 0 -158 -36 -26 -27 -29 -85 -7 -119 17 -26 17 -26 -9 -16 -53 20 -114 10
-114 -20 0 -46 77 -101 170 -121 70 -15 67 -37 -8 -66 -31 -11 -104 -40 -162
-63 -58 -24 -121 -49 -141 -57 l-37 -15 2 -75 1 -74 105 -56 c58 -30 164 -82
235 -115 72 -32 139 -63 150 -69 11 -5 76 -32 145 -59 69 -28 153 -62 187 -76
l62 -26 88 42 c48 23 90 46 91 51 2 5 7 7 11 5 4 -3 72 33 150 79 l143 85 40
-21 c52 -27 97 -20 154 21 23 16 45 30 48 30 3 0 45 -23 93 -50 48 -28 97 -50
110 -50 25 0 28 -7 14 -29 -5 -7 -13 -11 -19 -7 -5 3 -9 -2 -8 -12 1 -19 -93
-55 -193 -74 -31 -5 -71 -18 -90 -28 l-35 -17 55 2 c30 2 89 14 131 28 78 25
131 26 172 5 12 -7 22 -6 28 0 7 7 19 7 36 1 23 -9 24 -8 11 8 -13 15 -12 16
6 9 58 -24 102 -37 144 -43 l46 -6 -25 22 c-21 19 -22 21 -5 15 29 -10 152
-17 172 -10 15 6 15 8 3 16 -13 8 -13 10 1 10 26 0 119 32 119 41 0 4 -8 10
-17 12 -10 3 -1 5 19 6 40 1 84 18 108 40 13 13 12 14 -8 9 -18 -5 -21 -4 -12
7 6 7 27 15 48 19 21 3 46 12 57 21 17 13 18 16 5 25 -13 8 -13 10 2 10 15 0
16 4 7 26 -5 15 -21 40 -34 56 -14 16 -25 35 -25 43 0 31 -80 33 -174 5 -36
-11 -68 -25 -71 -30 -4 -6 -11 -8 -16 -4 -6 3 -22 -5 -36 -17 -22 -21 -25 -21
-19 -5 5 15 4 17 -7 7 -32 -26 -106 -59 -109 -49 -2 6 -16 -9 -30 -34 -24 -40
-58 -79 -58 -65 0 2 7 21 16 42 8 20 13 40 10 42 -3 3 -10 -7 -16 -22 -6 -15
-13 -25 -17 -21 -3 3 -13 0 -21 -7 -13 -10 -14 -8 -10 16 4 22 3 25 -8 16 -11
-9 -14 -7 -15 7 0 11 -5 4 -11 -15 l-9 -34 -18 29 c-33 53 -79 83 -182 115
-96 30 -99 31 -99 60 0 45 -24 92 -61 123 l-34 28 35 -20 c19 -11 78 -43 130
-72 52 -29 106 -60 120 -70 80 -55 75 -55 252 -5 89 25 168 45 177 45 11 0 12
3 4 8 -6 4 8 8 30 9 34 2 145 33 246 69 11 4 10 9 -5 27 -11 12 -19 29 -18 37
1 8 2 24 3 36 1 15 11 24 34 31 l32 10 -48 23 c-40 19 -48 27 -43 44 3 12 6
24 6 29 0 4 9 7 20 7 24 0 38 29 20 40 -20 12 -4 60 20 60 23 0 36 18 18 25
-18 7 -11 74 9 97 17 20 10 38 -16 38 -10 0 -26 9 -36 20 -14 16 -17 30 -12
72 4 31 13 55 22 60 24 14 18 28 -17 40 -30 11 -30 12 -10 19 23 9 29 24 12
34 -22 13 -3 165 20 165 25 0 6 19 -27 28 -33 9 -34 10 -11 11 33 1 47 20 24
33 -12 7 -16 23 -16 63 0 44 4 57 22 69 12 9 30 16 40 16 26 0 31 18 8 30 -12
6 -42 15 -68 20 -26 5 -83 16 -127 24 -44 8 -118 20 -165 25 -47 6 -113 16
-147 22 l-63 11 -1 57 c-1 99 -6 126 -28 175 -15 35 -25 47 -36 42 -9 -3 -13
-2 -10 4 8 13 -31 28 -92 35 -26 3 -115 18 -198 35 -82 16 -169 32 -193 35
-37 6 -45 12 -62 47 -19 39 -19 44 -4 97 17 59 73 177 105 222 17 24 17 28 3
33 -31 12 -53 5 -72 -21z m-188 -399 c3 -8 2 -12 -4 -9 -6 3 -10 10 -10 16 0
14 7 11 14 -7z m304 -161 c-10 -2 -26 -2 -35 0 -10 3 -2 5 17 5 19 0 27 -2 18
-5z m-33 -1413 c3 -5 -1 -10 -10 -10 -9 0 -13 5 -10 10 3 6 8 10 10 10 2 0 7
-4 10 -10z m412 -402 c-3 -8 -6 -5 -6 6 -1 11 2 17 5 13 3 -3 4 -12 1 -19z
m-1050 -120 c-3 -7 -5 -2 -5 12 0 14 2 19 5 13 2 -7 2 -19 0 -25z m23 -58 c0
-13 -1 -13 -10 0 -5 8 -10 22 -10 30 0 13 1 13 10 0 5 -8 10 -22 10 -30z"/>
</g>
</svg>
