<svg width="66" height="66" viewBox="0 0 66 66" fill="none" xmlns="http://www.w3.org/2000/svg">
<g clip-path="url(#clip0)">
<path d="M6.02849 47.5871L7.56705 45.3108L6.08632 43.9989L4.18611 45.5241C4.18611 45.5241 4.1945 47.5387 2.9504 48.6939C2.95092 48.6942 4.42524 47.4752 6.02849 47.5871ZM5.28506 46.0151C5.52966 46.0053 5.73875 46.1942 5.7506 46.4352C5.76315 46.6765 5.5746 46.8804 5.33001 46.8901C5.08542 46.8999 4.87632 46.711 4.86448 46.47C4.85138 46.2276 5.04007 46.0237 5.28506 46.0151Z" fill="white"/>
<path d="M34.742 25.1419C28.2761 27.4136 18.6954 33.4536 9.59022 41.2685L9.58849 41.2635L8.00141 42.6172L8.88762 43.3887L9.9543 42.1523C14.8387 37.9092 27.8932 26.9372 45.8812 23.0373C45.8812 23.0373 52.5088 21.7756 59.5084 19.2422C57.8043 19.8589 54.7284 20.2898 53.0093 20.6643C48.4975 21.6469 43.178 22.1775 34.742 25.1419Z" fill="white"/>
<path d="M11.6918 33.2525C9.1029 36.8426 8.05834 39.9143 8.19166 40.9114L8.87659 41.1607C12.1936 37.9316 26.4671 27.0565 33.7534 24.6782C41.3026 22.2138 46.8085 21.185 51.3304 20.6191C52.9181 20.4205 54.629 19.9915 56.2058 19.5111C58.1405 18.8727 60.126 18.1593 61.9121 17.404L57.1207 18.533L59.8054 16.5228L55.2941 18.6726L58.7662 15.7997C53.5308 14.4121 47.9038 15.2362 47.9038 15.2362C45.2095 16.7834 42.4014 19.7828 42.4014 19.7828C42.9952 17.9881 45.1762 15.7371 45.1762 15.7371C44.14 15.8194 40.0622 16.519 40.0622 16.519C37.9123 17.2879 36.0885 20.7031 36.0885 20.7031C36.2917 19.1681 38.386 16.8287 38.386 16.8287C32.6323 17.8372 27.5362 21.2677 27.5362 21.2677C23.5044 25.028 24.1272 29.3337 23.709 28.2049C23.2909 27.0762 24.593 23.9882 24.593 23.9882C17.8917 26.9499 16.5389 29.0421 16.5389 29.0421C14.9643 30.7671 12.2566 35.929 12.2566 35.929C11.9708 35.2503 13.4752 32.5808 13.4752 32.5808C11.3496 34.68 11.0572 37.2734 11.0572 37.2734C10.5567 36.8608 11.6918 33.2525 11.6918 33.2525Z" fill="white"/>
<path d="M61.328 19.0109C61.328 19.0109 58.7417 20.1678 55.6217 21.118C50.6791 22.7492 46.0804 23.8794 46.0804 23.8794C28.4794 27.167 15.3237 38.1983 10.9127 42.017L12.3311 42.5333C12.9786 42.3138 13.8418 42.2848 17.3169 42.5189C21.7076 42.8145 24.9508 41.2759 24.9508 41.2759C24.9508 41.2759 20.5887 41.9864 18.9549 41.1621C17.321 40.3378 14.7927 40.1451 14.7927 40.1451C14.7927 40.1451 14.0641 39.4205 18.6188 40.3505C23.1735 41.2806 32.0418 39.0315 32.0418 39.0315C32.0418 39.0315 28.9176 39.1583 27.7005 38.6001C26.4834 38.0418 23.3451 37.0149 23.3451 37.0149C25.5729 37.2894 27.391 38.2578 30.958 38.2152C34.5249 38.1726 34.3136 38.211 34.3136 38.211C38.2986 38.3206 41.1164 35.1719 41.1164 35.1719C40.4155 35.185 35.5115 34.0509 33.7731 32.7675C32.0347 31.4841 28.5076 30.8511 28.5076 30.8511C32.0251 30.9443 32.55 31.6717 33.3283 31.9165C34.1072 32.1616 36.5078 33.265 42.0363 33.3625C47.5647 33.46 49.7217 31.8701 49.7217 31.8701L46.2471 31.1069C48.5431 31.5303 51.5029 30.9863 51.5029 30.9863C49.8566 30.8466 47.4481 30.1997 47.4481 30.1997C50.4223 30.5931 52.2634 30.3057 52.2634 30.3057C55.5558 29.2826 57.2066 26.5898 57.2066 26.5898C53.0923 26.5091 50.4098 24.8821 50.4098 24.8821C55.5509 26.3706 57.4125 25.5921 58.2195 25.5417C59.0276 25.4908 59.7729 24.3357 59.7729 24.3357C56.9053 24.3263 53.9753 23.4319 53.9753 23.4319C57.2606 24.0817 60.4978 23.4788 60.4978 23.4788L61.0708 21.9045C59.6191 22.1518 57.3094 21.9147 57.3094 21.9147L61.3774 20.9826C61.9503 19.9842 61.328 19.0109 61.328 19.0109Z" fill="white"/>
<path d="M6.44213 43.4192L8.11498 44.9164L8.79525 44.1822L7.1225 42.6851L6.44213 43.4192Z" fill="white"/>
<path d="M28.4712 50.6156C20.8687 51.3714 13.8811 51.2294 5.51327 48.4983C4.73244 48.2439 4.4479 49.0137 5.23256 49.2696C12.7182 51.7128 19.4501 52.3627 26.3967 51.7411C34.1354 51.048 41.1523 50.6609 49.7539 52.7921C50.5474 52.9882 50.4929 52.1274 49.7052 51.9324C42.0871 50.0456 35.3821 49.9288 28.4712 50.6156Z" fill="white"/>
</g>
<defs>
<clipPath id="clip0">
<rect width="50" height="50" fill="white" transform="translate(18.0989 0.99881) rotate(19.9989)"/>
</clipPath>
</defs>
</svg>
